<?xml version="1.0" encoding="utf-8"?>
<!-- Generator: Adobe Illustrator 25.4.1, SVG Export Plug-In . SVG Version: 6.00 Build 0)  -->
<svg version="1.1" id="Layer_1" xmlns="http://www.w3.org/2000/svg" xmlns:xlink="http://www.w3.org/1999/xlink" x="0px" y="0px"
	 viewBox="0 0 85 84" style="enable-background:new 0 0 85 84;" xml:space="preserve">
<style type="text/css">
	.st0{fill:#FFFFFF;}
</style>
<path class="st0" d="M27.3,36.3h-6.1c-0.5,0-1.1-0.1-1.6-0.3c-0.7-0.2-1.2-0.6-1.1-1.9c0-0.7,0.5-1.4,1.2-1.6l1.4-0.2h10.1
	c1.2-0.1,2.3,0.8,2.4,2c0,0.1,0,0.2,0,0.3c-0.2,0.7-0.5,1.4-0.9,2L26.2,45l-1.9,2.5h7.8c0.9,0,1.7,0.7,1.8,1.6
	c0.2,1.3-0.1,2.1-1.1,2.4c-0.8,0.2-1.5,0.2-2.3,0.2H20.2c-1.2-0.1-2.2-1.1-2.1-2.3c0-0.4,0.1-0.7,0.3-1c0.6-1,1.3-2,2-2.9l6.3-8.2
	L27.3,36.3z"/>
<path class="st0" d="M47.2,44.7v4.6c0.1,1.2-0.8,2.2-2,2.2c-0.1,0-0.3,0-0.4,0l-1-0.5c-0.4-0.3-0.7-0.5-1.2-0.1
	c-2.1,1.3-4.7,1.1-6.6-0.5c-2.9-2.6-3.3-7-1.1-10.2c1.7-2.6,5.2-3.3,7.8-1.6c0.4,0.3,0.6,0.2,0.9-0.1c0.6-0.6,1.5-0.8,2.3-0.4
	c0.9,0.2,1.4,1.1,1.3,2V44.7z M43,44.7c-0.1-0.4-0.1-0.8-0.2-1.2c-0.2-1-1-1.7-2-1.9c-0.8-0.2-1.7,0-2.3,0.7c-1,1.3-1.1,3-0.3,4.4
	c0.7,1.2,2.1,1.6,3.3,0.9c0.2-0.1,0.3-0.2,0.4-0.3C42.6,46.6,43,45.7,43,44.7z"/>
<path class="st0" d="M66.9,44.7c0.1,2-0.7,3.8-2.1,5.2c-1.1,1.2-2.7,1.8-4.3,1.8c-1.6,0.2-3.2-0.2-4.5-1.2c-1.6-1.1-2.6-2.9-2.8-4.8
	c-0.1-1.3,0-2.6,0.5-3.8c0.7-2.1,2.5-3.6,4.7-4c3.6-1,7.3,1.1,8.3,4.7c0.2,0.6,0.3,1.2,0.2,1.8V44.7z M62.7,44.7
	c0-0.8-0.3-1.5-0.7-2.2c-0.8-1.1-2.3-1.3-3.4-0.5c-0.1,0.1-0.2,0.1-0.2,0.2c-1.1,1.1-1.3,2.8-0.7,4.2c0.6,1.3,2.2,1.8,3.5,1.2
	c0.1-0.1,0.2-0.1,0.3-0.2C62.3,46.8,62.8,45.7,62.7,44.7z"/>
<path class="st0" d="M52.2,41.8v7.5c0.1,1-0.6,1.9-1.6,2.1c-1,0.3-2-0.3-2.2-1.2c0-0.1,0-0.2-0.1-0.3c-0.1-0.6-0.2-1.2-0.2-1.8V34.6
	c0-1.2,0.5-2,1.4-2.2c1-0.4,2.1,0,2.5,0.9c0.1,0.3,0.2,0.6,0.2,0.9L52.2,41.8z"/>
</svg>
