<?xml version="1.0" encoding="utf-8"?>
<!-- Generator: Adobe Illustrator 25.4.1, SVG Export Plug-In . SVG Version: 6.00 Build 0)  -->
<svg version="1.1" id="Layer_1" xmlns="http://www.w3.org/2000/svg" xmlns:xlink="http://www.w3.org/1999/xlink" x="0px" y="0px"
	 viewBox="0 0 84 84" style="enable-background:new 0 0 84 84;" xml:space="preserve">
<style type="text/css">
	.st0{fill:#FFFFFF;}
</style>
<g id="call" transform="translate(-0.302)">
	<path id="Vector" class="st0" d="M33,27.1c-0.7-1.5-1.4-1.5-2-1.6c-0.5,0-1.1,0-1.7,0c-0.9,0-1.8,0.4-2.4,1.1
		c-2.1,1.9-3.2,4.7-3.1,7.5c0,4.4,3.2,8.7,3.7,9.3s6.2,9.9,15.3,13.5c7.6,3,9.1,2.4,10.8,2.2c1.6-0.2,5.3-2.2,6.1-4.3
		c0.6-1.3,0.8-2.8,0.5-4.3c-0.2-0.4-0.8-0.6-1.7-1c-0.9-0.4-5.3-2.6-6.1-2.9c-0.8-0.3-1.4-0.4-2,0.5c-0.6,0.9-2.3,2.9-2.8,3.5
		c-0.5,0.6-1,0.7-1.9,0.2c-2.6-1.1-5.1-2.6-7.2-4.5c-2-1.8-3.6-3.9-5-6.2c-0.5-0.9-0.1-1.4,0.4-1.8c0.4-0.4,0.9-1,1.3-1.6
		c0.4-0.5,0.7-1,0.9-1.5c0.2-0.5,0.2-1.1-0.1-1.6C35.6,33.3,33.8,28.9,33,27.1z"/>
</g>
</svg>
